Coordinates
version=1
nRows=12
nColumns=24
inDegrees=yes

Units are S.I. units (second, meters, Newtons, ...)
Angles are in degrees.

endheader
time	pelvis_tilt	pelvis_list	pelvis_rotation	pelvis_tx	pelvis_ty	pelvis_tz	hip_flexion_r	hip_adduction_r	hip_rotation_r	knee_angle_r	ankle_angle_r	subtalar_angle_r	mtp_angle_r	hip_flexion_l	hip_adduction_l	hip_rotation_l	knee_angle_l	ankle_angle_l	subtalar_angle_l	mtp_angle_l	lumbar_extension	lumbar_bending	lumbar_rotation
      4.12500000	    -11.56304585	     -2.64442380	     -0.72042203	      2.41537557	     -0.00360667	     -0.39774284	      5.14977912	      6.67251506	      3.27387095	     -2.95957287	     -0.97540599	      1.77625610	      8.21184505	     34.23559899	     -9.03318289	    -13.14427769	    -49.52799643	     -8.15291414	      6.35694970	     20.67524893	     10.82744146	      2.56018808	      6.36658411
      4.13000000	    -11.62215365	     -2.48865467	     -0.89264765	      2.42069176	     -0.00406718	     -0.39751248	      4.85694516	      6.53344889	      3.48954869	     -2.92403928	     -0.72308444	      1.74971099	      8.25804152	     34.56798965	     -8.82098070	    -13.39901831	    -48.36894812	     -7.95611126	      5.88017063	     20.17061680	     10.84993884	      2.40310048	      6.59488423
      4.13500000	    -11.60863434	     -2.30881390	     -1.06447251	      2.42603468	     -0.00447106	     -0.39726220	      4.49316302	      6.36851784	      3.73836432	     -2.90602056	     -0.47119219	      1.66325163	      8.31951120	     34.78502944	     -8.59136712	    -13.68124883	    -47.17359774	     -7.67994126	      5.60421688	     19.50291085	     10.79326601	      2.21456180	      6.84333156
      4.14000000	    -11.71287159	     -2.16118635	     -1.20420846	      2.43134985	     -0.00504039	     -0.39710628	      4.28675849	      6.23136192	      3.92974828	     -2.93909385	     -0.20300071	      1.61633418	      8.38294069	     35.13591627	     -8.36595591	    -13.89984288	    -45.93445467	     -7.54952270	      5.26850377	     19.13017999	     10.86469574	      2.05842045	      7.00885108
      4.14500000	    -11.70451573	     -2.02098437	     -1.42526711	      2.43659279	     -0.00551674	     -0.39689133	      3.97378773	      6.10617224	      4.21942090	     -2.99566347	      0.05578864	      1.54407177	      8.46803938	     35.32965793	     -8.20645261	    -14.26991650	    -44.68684748	     -7.35831723	      4.93115096	     18.52510256	     10.79762285	      1.93839452	      7.30263752
      4.15000000	    -11.71498766	     -1.86965205	     -1.59645469	      2.44188230	     -0.00603612	     -0.39668790	      3.68541369	      5.96607733	      4.47214609	     -3.06323628	      0.32039166	      1.43011803	      8.55980878	     35.52693777	     -8.00423980	    -14.57080478	    -43.39708070	     -7.16697065	      4.78847602	     17.94314809	     10.75992912	      1.77923433	      7.53884915
      4.15500000	    -11.79815863	     -1.74821143	     -1.76422354	      2.44715949	     -0.00666085	     -0.39652309	      3.49505552	      5.85596395	      4.68010337	     -3.16532274	      0.60173010	      1.38263953	      8.64459109	     35.79720363	     -7.83090037	    -14.88650692	    -42.07353781	     -7.09399013	      4.56938716	     17.54184108	     10.80192086	      1.65516849	      7.72457841
      4.16000000	    -11.84916087	     -1.62592921	     -1.95315753	      2.45242327	     -0.00725495	     -0.39636566	      3.27375231	      5.73933952	      4.91271995	     -3.26967929	      0.86947553	      1.35276266	      8.74259375	     36.00312267	     -7.66523317	    -15.23122031	    -40.71392427	     -7.02927313	      4.43290775	     17.10901580	     10.80442854	      1.53940727	      7.95039931
      4.16500000	    -11.88143688	     -1.51103832	     -2.14746727	      2.45767211	     -0.00781540	     -0.39623057	      3.03501759	      5.62307165	      5.15182330	     -3.37243557	      1.10952840	      1.35146653	      8.86244539	     36.16545455	     -7.50283025	    -15.57405540	    -39.31953568	     -7.00144989	      4.37728209	     16.65048657	     10.77985265	      1.43668660	      8.19111514
      4.17000000	    -11.93705463	     -1.40276206	     -2.32117446	      2.46295518	     -0.00844162	     -0.39609548	      2.82705363	      5.51518865	      5.33968262	     -3.48950720	      1.36949964	      1.35538525	      8.99845419	     36.33756252	     -7.33872692	    -15.92998816	    -37.89655476	     -7.02062769	      4.36310572	     16.24954331	     10.78637767	      1.32928934	      8.39353604
      4.17500000	    -11.99084744	     -1.29803451	     -2.49976500	      2.46821118	     -0.00905109	     -0.39595674	      2.62602729	      5.40730722	      5.51968632	     -3.61592580	      1.60990873	      1.39644917	      9.15892193	     36.48773826	     -7.17803204	    -16.29398437	    -36.44114295	     -7.12470505	      4.40530880	     15.86735799	     10.78612936	      1.22335086	      8.59421414
      4.18000000	    -12.07111430	     -1.20128829	     -2.64451058	      2.47352174	     -0.00973065	     -0.39587078	      2.45395888	      5.30582222	      5.65641272	     -3.75058669	      1.86770145	      1.42977412	      9.31874775	     36.65044111	     -7.00048005	    -16.64281140	    -34.95604256	     -7.26853555	      4.49706100	     15.55748642	     10.82019126	      1.11786165	      8.74655740
